<svg xmlns="http://www.w3.org/2000/svg" xmlns:svg="http://www.w3.org/2000/svg" id="Layer_1" x="0" y="0" enable-background="new 0 0 16 16" version="1.0" viewBox="0 0 16 16" xml:space="preserve"><metadata id="metadata22"/><g id="machine_x2B_cog" transform="matrix(0.83360586,0,0,0.83360586,-0.58820988,-0.64530384)"><path style="fill:gray;stroke:none;stroke-opacity:1" id="path2" d="M 13.77,6.39 C 13.64,5.92 13.45,5.47 13.22,5.06 l 0.43,-1.3 -1.41,-1.41 -1.3,0.43 C 10.52,2.55 10.08,2.36 9.61,2.23 L 9,1 H 7 L 6.39,2.23 C 5.92,2.36 5.47,2.54 5.06,2.78 L 3.76,2.35 2.34,3.76 2.77,5.06 C 2.54,5.47 2.36,5.92 2.23,6.39 L 1,7 v 2 l 1.23,0.61 c 0.13,0.47 0.32,0.92 0.55,1.33 l -0.43,1.3 1.41,1.41 1.3,-0.43 c 0.42,0.23 0.86,0.42 1.33,0.55 L 7,15 h 2 l 0.61,-1.23 c 0.47,-0.13 0.92,-0.32 1.33,-0.55 l 1.3,0.43 1.41,-1.41 -0.43,-1.3 c 0.23,-0.42 0.42,-0.86 0.55,-1.33 L 15,9 V 7 Z M 8,13 C 5.24,13 3,10.76 3,8 3,5.24 5.24,3 8,3 c 2.76,0 5,2.24 5,5 0,2.76 -2.24,5 -5,5 z"/><path style="fill:#2172eb" id="path4" d="M 11.3,7.08 C 11.23,6.81 11.12,6.56 10.99,6.32 L 11.24,5.58 10.43,4.77 9.68,5.01 C 9.45,4.88 9.19,4.78 8.92,4.7 L 8.57,4 H 7.43 L 7.08,4.7 C 6.81,4.78 6.55,4.88 6.32,5.01 L 5.58,4.77 4.77,5.58 5.02,6.32 C 4.88,6.55 4.78,6.81 4.7,7.08 L 4,7.43 v 1.14 l 0.7,0.35 c 0.07,0.27 0.18,0.52 0.31,0.76 l -0.25,0.74 0.81,0.81 0.74,-0.25 c 0.24,0.13 0.49,0.24 0.76,0.31 L 7.43,12 h 1.14 l 0.35,-0.7 c 0.27,-0.07 0.52,-0.18 0.76,-0.31 l 0.74,0.25 0.81,-0.81 -0.25,-0.74 C 11.11,9.45 11.22,9.2 11.29,8.93 L 12,8.57 V 7.43 Z M 8,10.86 C 6.42,10.86 5.14,9.58 5.14,8 5.14,6.42 6.42,5.14 8,5.14 c 1.58,0 2.86,1.28 2.86,2.86 0,1.58 -1.28,2.86 -2.86,2.86 z"/></g><g id="printer" transform="matrix(0.791121,0,0,0.791121,3.133185,3.133185)"><rect id="rect2" width="1" height="14" x="1" y="1" style="fill:gray"/><rect id="rect4" width="1" height="14" x="14" y="1" style="fill:gray"/><rect id="rect6" width="1" height="14" x="7.5" y="-1.5" transform="rotate(90,8,5.5)" style="fill:gray"/><rect id="rect8" width="1" height="14" x="7.5" y="-5.5" transform="rotate(90,8,1.5)" style="fill:gray"/><rect id="rect10" width="2" height="14" x="7" y="7" transform="rotate(90,8,14)" style="fill:gray"/><rect id="rect12" width="4" height="4" x="8.357" y="4" style="fill:#2172eb"/><polygon id="polygon14" points="5 9 4 8 6 8" transform="translate(5.2852025)" style="fill:#2172eb"/></g></svg>