<svg xmlns="http://www.w3.org/2000/svg" xmlns:svg="http://www.w3.org/2000/svg" xmlns:xlink="http://www.w3.org/1999/xlink" id="Layer_1" x="0" y="0" enable-background="new 0 0 16 16" version="1.0" viewBox="0 0 16 16" xml:space="preserve"><metadata id="metadata34"/><g id="g22" style="stroke:gray;stroke-opacity:1"><defs id="defs3"><polygon id="SVGID_1_" points="2 7.03 2 11.03 8 15.03 14 11.03 14 7.03 14 5.03 8 1.03 2 5.03"/></defs><clipPath id="SVGID_2_"><use id="use5" width="100%" height="100%" x="0" y="0" style="overflow:visible" overflow="visible" xlink:href="#SVGID_1_"/></clipPath><g id="g20" clip-path="url(#SVGID_2_)" style="stroke:gray;stroke-opacity:1"><line style="fill:none;stroke:gray;stroke-width:.69999999;stroke-linecap:round;stroke-linejoin:round;stroke-miterlimit:10;stroke-opacity:1" id="line8" x1="2.32" x2="8.56" y1="11.59" y2="1.34" stroke-miterlimit="10"/><line style="fill:none;stroke:gray;stroke-width:.69999999;stroke-linecap:round;stroke-linejoin:round;stroke-miterlimit:10;stroke-opacity:1" id="line10" x1="4.88" x2="11.12" y1="13.15" y2="2.9" stroke-miterlimit="10"/><line style="fill:none;stroke:gray;stroke-width:.69999999;stroke-linecap:round;stroke-linejoin:round;stroke-miterlimit:10;stroke-opacity:1" id="line12" x1="7.44" x2="13.68" y1="14.71" y2="4.46" stroke-miterlimit="10"/><line style="fill:none;stroke:gray;stroke-width:.69999999;stroke-linecap:round;stroke-linejoin:round;stroke-miterlimit:10;stroke-opacity:1" id="line14" x1="4.44" x2="14.68" y1="2.34" y2="8.59" stroke-miterlimit="10"/><line style="fill:none;stroke:gray;stroke-width:.69999999;stroke-linecap:round;stroke-linejoin:round;stroke-miterlimit:10;stroke-opacity:1" id="line16" x1="2.88" x2="13.12" y1="4.91" y2="11.15" stroke-miterlimit="10"/><line style="fill:none;stroke:gray;stroke-width:.69999999;stroke-linecap:round;stroke-linejoin:round;stroke-miterlimit:10;stroke-opacity:1" id="line18" x1="1.32" x2="11.56" y1="7.47" y2="13.71" stroke-miterlimit="10"/></g></g><path style="fill:#2172eb;fill-opacity:1" id="path24" d="m 7.9810171,2.2476273 4.9999999,3.33 v 1.46 3.4600007 l -4.9999999,3.33 -5.0000003,-3.33 v -3.4500007 -1.47 l 5.0000003,-3.33 m 0,-1.2 -6.0000003,4 v 2 4.0000007 l 6.0000003,4 5.9999999,-4 v -4.0000007 -2 z"/><path style="fill:none;stroke:#2172eb;stroke-width:1px;stroke-linecap:butt;stroke-linejoin:miter;stroke-opacity:1" id="path4559" d="M 7.9810171,13.827628 V 8.4745763 L 2.9810168,5.5776273"/><path style="fill:none;stroke:#2172eb;stroke-width:1px;stroke-linecap:butt;stroke-linejoin:miter;stroke-opacity:1" id="path4561" d="m 12.981017,5.5776273 -4.9999999,2.896949 v 0"/></svg>